<svg version="1.1" id="Layer_1" xmlns="http://www.w3.org/2000/svg" xmlns:xlink="http://www.w3.org/1999/xlink" x="0px" y="0px"
	 width="100%" viewBox="0 0 1024 1024" enable-background="new 0 0 1024 1024" xml:space="preserve">
<path fill="#F7F7F7" opacity="1.000000" stroke="none" 
	d="
M701.000000,1025.000000 
	C467.333344,1025.000000 234.166672,1025.000000 1.000000,1025.000000 
	C1.000000,683.666687 1.000000,342.333344 1.000000,1.000000 
	C342.333344,1.000000 683.666687,1.000000 1025.000000,1.000000 
	C1025.000000,342.333344 1025.000000,683.666687 1025.000000,1025.000000 
	C917.166687,1025.000000 809.333313,1025.000000 701.000000,1025.000000 
M607.998108,371.997253 
	C607.998108,371.997253 607.970154,371.943176 607.471313,372.287659 
	C607.285889,372.853455 607.100464,373.419250 606.986877,373.975525 
	C606.986877,373.975525 606.950806,373.912781 606.366150,374.071960 
	C605.995972,374.729431 605.625793,375.386871 605.067200,376.160187 
	C605.067200,376.160187 604.958069,376.352631 604.734985,376.377502 
	C604.734985,376.377502 604.566895,376.733856 604.118164,377.325745 
	C602.411255,379.884003 600.704407,382.442291 598.365479,385.187897 
	C588.690918,392.806946 579.016357,400.425995 568.605103,408.234314 
	C558.032166,412.829742 546.974609,415.246735 535.489197,416.214294 
	C528.604614,416.794281 521.790222,418.208282 514.150269,419.167419 
	C502.406250,421.011444 491.906372,426.096130 482.398590,432.816284 
	C477.573151,436.227020 474.097198,441.546997 469.999847,446.000000 
	C469.999847,446.000000 470.003906,446.011383 469.554047,446.243225 
	C469.242615,446.789154 468.931183,447.335052 468.123749,448.340515 
	C467.407135,448.856537 466.690552,449.372559 465.340271,450.130188 
	C463.473236,452.643921 461.637390,455.181549 459.733521,457.667114 
	C452.837463,466.670319 449.010773,476.955505 446.892487,488.355133 
	C446.892487,488.355133 446.952728,488.715637 446.547180,489.010895 
	C446.298370,489.258789 446.173523,489.558258 445.953400,490.694702 
	C440.364685,516.355652 446.066162,540.059814 458.607300,562.199646 
	C450.582581,563.855835 442.701050,565.024841 435.093201,567.166382 
	C425.197083,569.952026 415.679535,573.820374 407.399506,581.192688 
	C406.844879,581.773193 406.290253,582.353699 405.184357,582.982178 
	C404.792145,583.332642 404.399933,583.683044 403.338226,584.165405 
	C392.754272,591.676025 384.252319,601.145325 377.003082,612.355713 
	C377.003082,612.355713 376.968903,612.785828 376.530731,613.090515 
	C376.354309,613.393494 376.177856,613.696472 375.397308,614.300781 
	C372.901886,618.463562 370.406494,622.626282 367.350708,627.185303 
	C364.509674,632.404968 361.092804,637.400574 358.955200,642.893982 
	C355.241333,652.438171 352.317902,662.290039 348.529602,672.513306 
	C347.852295,674.728271 346.983612,676.905823 346.540924,679.166748 
	C345.809967,682.900146 343.875366,684.342957 339.977386,684.103516 
	C334.846741,683.788330 329.679169,684.026733 324.528412,684.096863 
	C314.054993,684.239380 304.438629,682.090942 296.905945,673.282349 
	C295.825836,670.926331 294.745728,668.570374 293.806793,665.284180 
	C293.788788,662.468201 293.770752,659.652161 293.945526,656.090698 
	C296.254639,650.095764 297.905182,643.734375 300.997742,638.175293 
	C309.890198,622.190308 319.422913,606.562927 328.600342,590.734863 
	C347.862701,557.513611 367.104584,524.280273 386.271362,491.003815 
	C416.662689,438.239777 447.029358,385.461365 477.292084,332.623535 
	C482.072021,324.277893 486.251526,315.588348 491.154999,306.524200 
	C495.714142,300.784607 501.019012,295.777222 508.675415,295.438171 
	C514.019897,295.201447 519.429871,296.443817 525.104736,297.469208 
	C525.401733,297.655945 525.698792,297.842682 525.999268,297.996063 
	C525.999268,297.996063 525.971069,298.014343 526.286438,298.600006 
	C529.721863,302.627136 533.773865,306.282013 536.473633,310.753357 
	C543.665405,322.664093 550.293396,334.915985 557.110413,347.051971 
	C562.706543,357.014465 568.148682,367.066132 573.935364,376.915924 
	C574.772400,378.340698 578.224854,380.007507 578.652771,379.609894 
	C581.785767,376.698669 584.455994,373.289368 587.770508,369.779053 
	C588.178101,369.174042 588.585693,368.569061 589.573547,367.626495 
	C596.527710,359.198517 596.184937,350.402222 591.045532,341.261200 
	C582.747498,326.501984 574.331604,311.803711 566.332947,296.882721 
	C554.891663,275.539917 537.754578,263.797913 512.204651,263.996033 
	C510.427795,264.065765 508.650909,264.135529 506.060272,264.113708 
	C486.872498,265.625946 472.573578,274.978485 462.913940,291.426300 
	C458.032013,299.738892 453.722443,308.385590 448.940796,316.759491 
	C435.663574,340.011261 422.271179,363.197296 408.930511,386.412872 
	C392.932739,414.252411 376.891449,442.067139 360.976227,469.953796 
	C355.880737,478.882080 351.126190,488.005005 345.631744,497.407867 
	C338.284088,510.222900 330.971863,523.058350 323.581635,535.848755 
	C306.974640,564.590820 290.136108,593.201782 273.831665,622.114197 
	C269.642334,629.543030 267.087006,637.893372 263.284332,646.415710 
	C262.897003,647.683777 262.268463,648.931274 262.158386,650.222961 
	C260.386292,671.018921 265.843628,689.047302 282.456421,702.751221 
	C291.305206,710.050537 301.292023,714.419189 313.727112,714.792847 
	C314.844940,714.800537 315.962769,714.808228 317.503418,714.903076 
	C317.503418,714.903076 317.933350,714.863159 318.561798,715.185242 
	C319.119568,716.375671 320.170929,717.583008 320.130981,718.753052 
	C320.050934,721.098877 319.374451,723.424255 318.478668,726.245117 
	C318.339569,727.814697 318.200470,729.384338 317.860474,731.723022 
	C317.782104,733.529297 317.703766,735.335632 317.359009,737.843262 
	C317.642975,739.516602 317.926941,741.189880 318.136993,743.790649 
	C318.359253,744.684448 318.581482,745.578186 318.675232,746.496399 
	C318.675232,746.496399 318.899231,746.568542 319.044708,746.797913 
	C319.044708,746.797913 319.263855,746.958374 319.275574,747.689819 
	C325.215759,764.703308 336.835815,774.858765 355.678314,777.591919 
	C356.517944,777.630127 357.357574,777.668335 359.041199,777.867737 
	C361.636108,777.827942 364.231018,777.788208 367.589966,777.809265 
	C369.092255,777.487244 370.594513,777.165222 372.797119,776.886963 
	C374.220947,776.263977 375.644745,775.640991 377.808716,775.016296 
	C392.970215,769.317749 407.758362,754.257446 406.929413,734.984863 
	C406.641022,728.279053 404.973572,721.632507 404.883606,715.007446 
	C451.872589,715.022888 498.861603,715.053040 545.850586,715.049805 
	C599.452271,715.046204 653.054443,715.127441 706.655273,714.906494 
	C719.016602,714.855530 730.498413,711.273560 740.646912,702.824463 
	C741.102417,702.526917 741.557922,702.229370 742.647034,701.894897 
	C743.188354,701.286865 743.729675,700.678833 744.923645,699.956055 
	C762.723694,686.049805 769.891174,660.224670 759.979309,638.755676 
	C751.371521,620.111267 740.859741,602.323853 730.788513,584.382690 
	C717.207886,560.189697 703.304504,536.176941 689.418030,512.157104 
	C682.031006,499.379639 674.387878,486.750244 666.826660,473.325897 
	C664.881958,469.676025 663.021545,465.978210 660.977661,462.384735 
	C653.093323,448.523346 645.147278,434.697052 637.232239,420.853088 
	C635.841370,418.420197 634.189880,416.242615 631.800659,419.667908 
	C626.893616,426.703156 620.196228,431.477936 612.709839,435.246246 
	C609.697510,436.762482 609.387146,438.686218 610.924377,441.262329 
	C617.973877,453.075806 625.063049,464.865692 632.274719,477.215759 
	C632.543213,477.472656 632.811707,477.729523 633.163635,478.696625 
	C639.396057,489.676575 645.578796,500.685089 651.870239,511.631165 
	C671.025330,544.958374 690.232849,578.255493 709.397461,611.577393 
	C716.351929,623.669312 723.242493,635.798035 730.174988,648.662659 
	C736.901550,661.559753 731.032959,674.943604 721.458374,679.753845 
	C714.438416,683.280579 706.954651,684.121338 699.171204,684.113220 
	C593.339355,684.003174 487.507446,683.993835 381.675537,683.947876 
	C380.715942,683.947449 379.756409,683.786560 378.610626,683.683960 
	C378.818665,682.310486 378.848358,681.126160 379.185425,680.037048 
	C384.174469,663.916443 389.999237,648.078552 399.954193,634.317200 
	C405.356689,626.849121 410.995331,618.668274 418.472504,613.790955 
	C429.773651,606.419434 442.773682,601.652405 455.767395,595.840881 
	C457.124573,595.474426 458.481750,595.107971 460.593323,594.849426 
	C462.075104,594.548340 463.556915,594.247253 465.586823,594.332275 
	C468.661072,594.129272 471.735321,593.926208 475.760895,593.862244 
	C492.578705,593.800720 509.396484,593.739258 527.047485,593.833862 
	C530.627563,593.924255 534.207642,594.014587 538.604980,594.501160 
	C540.416931,594.647156 542.228882,594.793213 544.210632,595.701233 
	C548.014648,610.432190 561.562927,622.473328 577.774963,625.061584 
	C581.227112,625.388000 584.672668,625.851379 588.132507,626.019470 
	C621.711853,627.650635 644.355164,586.808716 627.191101,559.642517 
	C621.184937,550.136414 613.878784,541.757935 601.673462,538.458496 
	C600.771118,538.292053 599.868774,538.125610 598.642700,537.858337 
	C598.642700,537.858337 598.310730,537.927307 597.713562,537.393921 
	C591.422302,535.941833 585.140747,534.084473 577.972717,536.878296 
	C576.956177,537.038574 575.939575,537.198853 574.294556,537.312256 
	C573.179443,537.871155 572.064331,538.430115 570.425964,539.012146 
	C570.258362,539.061096 570.090759,539.110046 569.203369,539.157715 
	C561.393311,542.032776 553.901489,546.053589 550.555420,553.791138 
	C547.306763,561.303223 542.128662,563.825439 534.370422,563.661194 
	C533.263916,563.779968 532.157349,563.898743 530.213562,563.932495 
	C528.812622,563.953796 527.411621,563.975098 525.663147,563.650330 
	C525.084595,563.757751 524.506104,563.865173 523.323975,563.878479 
	C522.919006,563.908752 522.514038,563.938965 521.880005,563.690186 
	C521.684082,563.489075 521.468079,563.463867 520.341980,563.343384 
	C517.580872,563.136780 514.819763,562.930237 511.578674,562.300781 
	C510.953064,562.192444 510.327454,562.084167 509.675964,561.795776 
	C509.675964,561.795776 509.433929,561.774109 508.595917,561.426086 
	C507.700867,561.330627 506.805786,561.235168 505.432312,560.647583 
	C500.797760,557.588623 495.914459,554.842896 491.582947,551.402344 
	C483.740753,545.173401 480.799377,535.765076 476.807983,526.278748 
	C476.674072,525.753601 476.540192,525.228516 476.438995,524.441956 
	C476.336639,524.280579 476.191559,524.181152 476.020721,523.238831 
	C474.684662,513.430969 475.014221,503.799591 477.862030,494.184570 
	C485.190216,469.442596 500.331421,453.556854 526.680420,449.770660 
	C537.670288,448.191498 548.797729,447.055420 559.550720,444.437042 
	C594.659973,435.887787 619.457886,413.867798 636.862000,382.974792 
	C646.610962,365.669983 654.080933,347.427155 656.297241,327.569153 
	C671.911011,324.423431 680.110535,319.471008 690.254944,307.199127 
	C701.352539,293.774170 704.286682,272.131348 696.907288,257.291992 
	C695.961731,255.777832 695.016113,254.263657 694.065979,252.346344 
	C694.065979,252.346344 693.934875,251.965103 693.902466,251.419327 
	C693.585571,251.007095 693.268616,250.594864 692.950073,250.075195 
	C692.950073,250.075195 692.848511,250.039948 692.798157,249.430679 
	C692.208862,248.931824 691.619629,248.432968 690.997009,247.987030 
	C690.997009,247.987030 691.059570,247.986801 690.885559,247.487427 
	C690.601624,247.298798 690.317627,247.110153 690.068481,246.984390 
	C690.068481,246.984390 690.112671,246.927734 690.102112,246.210190 
	C689.901672,245.587555 689.864258,244.829773 689.476807,244.362106 
	C680.772034,233.855820 669.769714,227.262787 656.077637,226.228287 
	C650.153381,225.780670 644.115662,226.834854 637.367249,227.169785 
	C636.879395,227.301849 636.391602,227.433899 635.325500,227.417557 
	C634.470093,227.921524 633.614624,228.425507 632.163391,228.907745 
	C631.771484,228.970947 631.379517,229.034149 630.298584,229.070587 
	C629.084106,229.667511 627.869690,230.264435 625.951660,230.926987 
	C621.659912,234.053909 617.368164,237.180847 612.716431,240.385391 
	C612.488281,240.511993 612.346985,240.702835 612.014893,241.415054 
	C611.989685,241.764328 611.964417,242.113586 611.447510,242.641296 
	C611.295532,242.725128 611.143555,242.808960 610.346313,243.054916 
	C609.527100,244.047440 608.707825,245.039963 607.784241,246.259689 
	C607.784241,246.259689 607.911499,246.474899 607.385620,246.828415 
	C607.143921,247.169067 606.902222,247.509720 606.125977,248.246811 
	C604.377258,251.736771 602.628540,255.226730 600.423035,259.164825 
	C600.288208,259.774261 600.153320,260.383728 599.715149,261.562317 
	C599.520325,262.380981 599.325500,263.199646 598.638489,264.572876 
	C598.226501,267.360748 597.814453,270.148621 597.179749,273.804382 
	C597.227356,275.888458 597.275024,277.972534 597.193054,280.889740 
	C599.028015,288.390503 599.337097,296.802399 603.121094,303.139313 
	C607.012329,309.655853 614.056396,314.443481 620.202820,319.388550 
	C622.883179,321.545074 624.766479,323.407654 624.264832,327.605377 
	C624.248901,328.102692 624.232971,328.600006 624.074951,329.707550 
	C624.074829,330.124420 624.074646,330.541321 623.740173,331.595398 
	C623.531860,332.752106 623.323608,333.908813 622.688232,335.406952 
	C622.577332,335.920227 622.466370,336.433533 622.131042,337.589508 
	C622.101624,337.814514 622.072205,338.039490 621.600159,338.658539 
	C621.461121,339.432465 621.322083,340.206421 621.070374,341.103912 
	C621.070374,341.103912 621.059143,341.270782 620.606873,341.656372 
	C620.459900,342.431458 620.312988,343.206543 620.033203,344.102600 
	C620.033203,344.102600 619.983459,344.275177 619.785217,344.314606 
	C619.785217,344.314606 619.720520,344.617981 619.385254,345.392853 
	C619.300903,345.946869 619.216553,346.500885 618.986816,347.512115 
	C618.986816,347.512115 618.955688,347.990906 619.003174,348.000122 
	C619.003174,348.000122 618.980774,347.957367 618.544312,348.204926 
	C618.298950,348.758301 618.053589,349.311707 617.427002,350.555420 
	C617.344543,351.070831 617.262085,351.586273 616.656921,352.531128 
	C616.144409,354.013641 615.631897,355.496155 614.975220,357.398865 
	C614.975220,357.398865 614.959412,357.842834 614.502808,358.119324 
	C614.196899,358.713623 613.891052,359.307922 613.257080,360.617706 
	C613.190369,360.871460 613.123718,361.125183 612.544067,361.723572 
	C611.452393,364.132324 610.360718,366.541077 609.070496,369.449005 
	C609.046082,369.626373 609.021606,369.803741 608.522278,370.339325 
	C608.327332,370.890564 608.132385,371.441803 607.998108,371.997253 
z"/>
<path fill="#EAA3A9" opacity="1.000000" stroke="none" 
	d="
M506.874054,264.205292 
	C508.650909,264.135529 510.427795,264.065765 512.920105,264.310974 
	C515.576721,264.970795 517.624695,265.031555 519.438904,265.714050 
	C524.800354,267.731018 530.317383,269.541504 535.308960,272.279694 
	C540.988708,275.395416 546.270020,279.286774 551.484985,283.163086 
	C552.673340,284.046387 552.878845,286.251831 553.701843,288.249542 
	C554.554504,288.710754 556.749390,289.149750 557.548401,290.447906 
	C564.283752,301.390289 570.811096,312.462036 577.299561,323.554260 
	C580.353027,328.774231 583.520386,333.971191 586.019409,339.459412 
	C588.425354,344.743286 590.881714,350.266785 591.700500,355.919006 
	C592.251648,359.723480 589.994202,363.934753 588.993286,367.964050 
	C588.585693,368.569061 588.178101,369.174042 587.166077,370.026794 
	C584.638184,371.217621 582.757996,372.795380 580.779480,372.930176 
	C578.687988,373.072662 576.021667,372.397278 574.482178,371.066284 
	C572.618164,369.454681 571.597290,366.822632 570.341675,364.559906 
	C562.514160,350.454041 554.831726,336.266327 546.873535,322.234894 
	C542.975281,315.361816 538.671326,308.712128 534.381775,302.070648 
	C532.484497,299.133087 529.772522,297.293671 525.971069,298.014343 
	C525.971069,298.014343 525.999268,297.996063 525.863647,297.779541 
	C525.422180,297.383850 525.116333,297.204681 524.810547,297.025543 
	C519.429871,296.443817 514.019897,295.201447 508.675415,295.438171 
	C501.019012,295.777222 495.714142,300.784607 490.591553,306.787109 
	C488.997375,307.746490 487.578949,308.209534 486.997070,309.176208 
	C482.229736,317.095856 477.562042,325.077118 472.972961,333.101929 
	C466.579834,344.281525 460.343109,355.550720 453.925171,366.715881 
	C446.604126,379.451996 439.106049,392.086304 431.779602,404.819366 
	C423.838531,418.620667 416.066956,432.519531 408.111877,446.312592 
	C398.250824,463.410278 388.227661,480.414490 378.370026,497.514130 
	C372.126404,508.344727 366.154663,519.332336 359.888794,530.149780 
	C347.204529,552.048096 334.383026,573.866760 321.657227,595.741028 
	C313.630585,609.537964 306.442413,623.908936 297.370972,636.976135 
	C292.679047,643.734741 291.678070,649.611023 293.752747,656.836182 
	C293.770752,659.652161 293.788788,662.468201 293.545868,665.996826 
	C294.520508,669.139954 295.756073,671.570374 296.991638,674.000854 
	C304.438629,682.090942 314.054993,684.239380 324.528412,684.096863 
	C329.679169,684.026733 334.846741,683.788330 339.977386,684.103516 
	C343.875366,684.342957 345.809967,682.900146 346.540924,679.166748 
	C346.983612,676.905823 347.852295,674.728271 349.166809,672.245728 
	C350.746460,671.200256 352.152710,670.610535 352.557098,669.614136 
	C355.490417,662.386597 358.104004,655.028931 361.059784,647.811096 
	C362.908630,643.296204 365.451324,639.054810 367.142822,634.490662 
	C368.010315,632.150024 367.692993,629.370361 367.911102,626.789062 
	C370.406494,622.626282 372.901886,618.463562 375.926422,614.007935 
	C376.626648,613.405396 376.797760,613.095581 376.968872,612.785828 
	C376.968903,612.785828 377.003082,612.355713 377.440308,612.160889 
	C378.898560,611.495117 380.185211,611.273682 380.898834,610.514038 
	C387.032532,603.984314 393.117371,597.406311 399.091156,590.730347 
	C400.929230,588.676270 402.379700,586.275452 404.007690,584.033447 
	C404.399933,583.683044 404.792145,583.332642 405.800720,582.945129 
	C406.950348,582.307861 407.483612,581.707642 408.016846,581.107422 
	C415.679535,573.820374 425.197083,569.952026 435.093201,567.166382 
	C442.701050,565.024841 450.582581,563.855835 458.607300,562.199646 
	C446.066162,540.059814 440.364685,516.355652 446.262329,490.159180 
	C446.797974,489.362885 446.925140,489.060211 446.952728,488.715637 
	C446.952728,488.715637 446.892487,488.355133 447.303528,488.130859 
	C448.562561,486.800262 449.666718,485.806854 450.213013,484.567535 
	C452.262421,479.918213 453.452057,474.735504 456.221466,470.593567 
	C460.555267,464.112000 464.369720,457.572479 465.973938,449.888580 
	C466.690552,449.372559 467.407135,448.856537 468.609528,448.051819 
	C469.398163,447.179199 469.701019,446.595276 470.003906,446.011383 
	C470.003906,446.011383 469.999847,446.000000 470.358643,445.955383 
	C474.455231,443.267944 478.233215,440.679504 481.914612,437.960297 
	C483.893616,436.498535 485.487152,434.365326 487.635254,433.309357 
	C494.731720,429.820862 502.047180,426.779968 509.176666,423.355042 
	C511.273132,422.347870 513.031128,420.636230 514.944275,419.247437 
	C521.790222,418.208282 528.604614,416.794281 535.489197,416.214294 
	C546.974609,415.246735 558.032166,412.829742 569.354126,408.110474 
	C571.716187,407.786407 573.621216,408.069611 574.891602,407.302155 
	C580.354675,404.001831 586.096863,400.917114 590.821106,396.721985 
	C594.284790,393.646149 596.323669,388.965790 598.997559,385.000580 
	C600.704407,382.442291 602.411255,379.884003 604.407104,376.973877 
	C604.695984,376.622040 604.958069,376.352631 604.958069,376.352631 
	C604.958069,376.352631 605.067200,376.160187 605.451294,376.017517 
	C606.207214,375.220825 606.578979,374.566803 606.950806,373.912781 
	C606.950806,373.912781 606.986877,373.975525 607.211853,373.817169 
	C607.614563,373.086945 607.792358,372.515045 607.970154,371.943176 
	C607.970154,371.943176 607.998108,371.997253 608.221985,371.831055 
	C608.629639,371.103638 608.813354,370.542389 608.997070,369.981140 
	C609.021606,369.803741 609.046082,369.626373 609.488037,369.132629 
	C610.956055,366.337158 612.006531,363.858032 613.057007,361.378937 
	C613.123718,361.125183 613.190369,360.871460 613.674927,360.190186 
	C614.381714,359.122711 614.670532,358.482788 614.959412,357.842834 
	C614.959412,357.842834 614.975220,357.398865 615.363037,357.132019 
	C616.227112,355.277344 616.703369,353.689514 617.179565,352.101685 
	C617.262085,351.586273 617.344543,351.070831 617.834961,350.134949 
	C618.488892,349.128784 618.734863,348.543060 618.980774,347.957367 
	C618.980774,347.957367 619.003174,348.000122 619.141357,347.924927 
	C619.355225,347.763306 619.512390,347.637299 619.492920,347.597260 
	C619.398804,347.403778 619.257080,347.233429 619.132202,347.054901 
	C619.216553,346.500885 619.300903,345.946869 619.590576,344.952148 
	C619.795837,344.511414 619.983459,344.275177 619.983459,344.275177 
	C619.983459,344.275177 620.033203,344.102600 620.305298,343.830017 
	C620.737915,342.795227 620.898499,342.033020 621.059143,341.270782 
	C621.059143,341.270782 621.070374,341.103912 621.329468,340.828003 
	C621.739929,339.789581 621.891357,339.027039 622.042786,338.264496 
	C622.072205,338.039490 622.101624,337.814514 622.487305,337.229614 
	C622.934082,336.268311 623.024658,335.666901 623.115234,335.065521 
	C623.323608,333.908813 623.531860,332.752106 624.107300,331.144531 
	C624.388550,330.161560 624.302795,329.629425 624.216980,329.097321 
	C624.232971,328.600006 624.248901,328.102692 624.706909,327.134827 
	C627.120056,320.019592 625.735413,317.034790 619.764221,314.758331 
	C618.548584,314.294830 617.331726,313.627075 616.354126,312.778534 
	C607.243408,304.870636 602.235168,294.539886 598.967590,283.177917 
	C598.649353,282.071320 597.881714,281.093964 597.322693,280.056610 
	C597.275024,277.972534 597.227356,275.888458 597.614014,273.312988 
	C599.362427,269.881866 600.676514,266.942169 602.002563,263.611084 
	C604.048218,259.098083 606.144531,255.005173 608.060303,250.829376 
	C608.420654,250.043930 608.060669,248.928040 607.998291,247.592560 
	C607.946106,246.971954 607.928772,246.723419 607.911499,246.474899 
	C607.911499,246.474899 607.784241,246.259689 608.171387,246.110565 
	C609.375366,245.297455 610.192200,244.633438 611.261597,243.791443 
	C611.655884,243.229935 611.797546,242.846405 611.939148,242.462860 
	C611.964417,242.113586 611.989685,241.764328 612.328308,241.189362 
	C612.641724,240.963669 612.996277,240.960800 613.203003,241.227966 
	C614.446472,241.321548 615.652405,241.430359 616.491821,240.927429 
	C621.089417,238.172791 625.628662,235.315735 630.096863,232.356476 
	C630.674255,231.974060 630.724854,230.796280 631.012268,229.764526 
	C631.005066,229.542084 630.987610,229.097336 630.987610,229.097351 
	C631.379517,229.034149 631.771484,228.970947 632.803650,228.934875 
	C634.263855,228.496643 635.083801,228.031296 635.903748,227.565948 
	C636.391602,227.433899 636.879395,227.301849 638.040771,227.428802 
	C646.394836,228.206757 653.971619,225.519760 661.818298,229.828110 
	C669.695251,234.153015 678.798584,236.152130 684.808594,243.700897 
	C686.018616,245.220749 688.316406,245.874603 690.112671,246.927734 
	C690.112671,246.927734 690.068481,246.984390 690.155029,247.187988 
	C690.514221,247.589996 690.786865,247.788406 691.059570,247.986816 
	C691.059570,247.986801 690.997009,247.987030 691.044189,248.275192 
	C691.677063,249.055557 692.262756,249.547760 692.848511,250.039948 
	C692.848511,250.039948 692.950073,250.075195 693.002075,250.389282 
	C693.347717,251.123947 693.641296,251.544525 693.934875,251.965088 
	C693.934875,251.965103 694.065979,252.346344 694.051086,252.923721 
	C694.998962,255.001694 695.961731,256.502289 696.924500,258.002899 
	C704.286682,272.131348 701.352539,293.774170 690.254944,307.199127 
	C680.110535,319.471008 671.911011,324.423431 656.297241,327.569153 
	C654.080933,347.427155 646.610962,365.669983 636.862000,382.974792 
	C619.457886,413.867798 594.659973,435.887787 559.550720,444.437042 
	C548.797729,447.055420 537.670288,448.191498 526.680420,449.770660 
	C500.331421,453.556854 485.190216,469.442596 477.862030,494.184570 
	C475.014221,503.799591 474.684662,513.430969 476.072571,523.791748 
	C476.124451,524.344604 476.406281,524.703369 476.406311,524.703369 
	C476.540192,525.228516 476.674072,525.753601 476.523224,526.846680 
	C475.662476,528.861572 474.231537,530.650024 474.650696,531.699646 
	C477.187164,538.051331 481.812042,543.513672 482.587646,550.662598 
	C482.658325,551.313965 484.080444,551.812073 484.865692,552.393921 
	C487.167999,554.099731 489.465607,555.811829 491.765076,557.521484 
	C493.403046,559.160522 495.583954,560.400635 497.915070,560.835449 
	C500.508972,561.319275 503.239624,561.069885 505.910736,561.139709 
	C506.805786,561.235168 507.700867,561.330627 509.058777,561.623047 
	C509.521606,561.820068 509.701843,561.975891 509.701843,561.975891 
	C510.327454,562.084167 510.953064,562.192444 511.874176,562.939697 
	C513.782288,564.053345 515.389954,564.918091 517.008362,564.938904 
	C526.935974,565.066284 536.865967,565.002747 545.637573,565.002747 
	C550.561035,559.020142 555.002075,553.197510 559.919006,547.809021 
	C562.869812,544.575256 566.563416,542.019470 569.923218,539.158997 
	C570.090759,539.110046 570.258362,539.061096 571.049194,538.996155 
	C572.756042,538.439819 573.839539,537.899475 574.923035,537.359131 
	C575.939575,537.198853 576.956177,537.038574 578.852905,536.923279 
	C585.925659,537.287964 592.118164,537.607666 598.310730,537.927307 
	C598.310730,537.927307 598.642700,537.858337 599.031921,538.175415 
	C600.331909,538.649170 601.242676,538.805786 602.153442,538.962402 
	C613.878784,541.757935 621.184937,550.136414 627.191101,559.642517 
	C644.355164,586.808716 621.711853,627.650635 588.132507,626.019470 
	C584.672668,625.851379 581.227112,625.388000 577.366699,624.581177 
	C576.406555,623.391724 576.002441,622.401672 575.278015,622.020691 
	C571.497070,620.032288 567.247009,618.714355 563.890808,616.191284 
	C558.764709,612.337769 553.671326,608.397034 551.131531,601.838806 
	C550.048828,599.042908 546.479919,597.209839 544.040833,594.939209 
	C542.228882,594.793213 540.416931,594.647156 538.044067,594.031372 
	C533.726868,593.600342 529.970581,593.639038 526.214294,593.677795 
	C509.396484,593.739258 492.578705,593.800720 474.987732,593.571777 
	C471.155914,593.502930 468.097321,593.724548 465.038696,593.946167 
	C463.556915,594.247253 462.075104,594.548340 459.967041,594.584961 
	C457.911072,594.806458 456.481384,595.292480 455.051697,595.778503 
	C442.773682,601.652405 429.773651,606.419434 418.472504,613.790955 
	C410.995331,618.668274 405.356689,626.849121 399.954193,634.317200 
	C389.999237,648.078552 384.174469,663.916443 379.185425,680.037048 
	C378.848358,681.126160 378.818665,682.310486 378.610626,683.683960 
	C379.756409,683.786560 380.715942,683.947449 381.675537,683.947876 
	C487.507446,683.993835 593.339355,684.003174 699.171204,684.113220 
	C706.954651,684.121338 714.438416,683.280579 721.458374,679.753845 
	C731.032959,674.943604 736.901550,661.559753 730.457153,648.123901 
	C731.470947,646.000488 732.202515,644.415710 732.520142,643.727661 
	C731.003357,641.853760 729.807922,640.700989 728.996460,639.322327 
	C723.433105,629.869507 717.891846,620.402649 712.457458,610.875305 
	C706.905884,601.142578 701.588379,591.275513 695.976318,581.578430 
	C690.692749,572.449036 685.043518,563.531189 679.765137,554.398926 
	C673.533813,543.618103 667.523560,532.709351 661.425659,521.851501 
	C657.667542,515.159851 653.928589,508.457458 650.173767,501.763947 
	C647.385010,496.792511 641.885559,492.777618 644.501221,487.316528 
	C641.894531,485.184082 640.035034,483.661133 638.173584,482.140503 
	C636.476868,480.754486 634.778076,479.371002 633.080200,477.986389 
	C632.811707,477.729523 632.543213,477.472656 632.338623,476.640717 
	C631.669006,473.297638 631.479858,470.216553 630.101135,467.819702 
	C625.806580,460.353607 621.057800,453.148956 616.492676,445.838196 
	C614.653076,442.892365 613.951782,439.786041 616.863281,437.250610 
	C622.298279,432.517761 627.955627,428.040314 634.097961,422.980896 
	C641.126099,434.823517 648.051514,446.370300 654.842957,457.995483 
	C657.673706,462.840973 660.094482,467.928833 663.005432,472.721985 
	C663.548706,473.616486 665.538208,473.632538 666.860291,474.054016 
	C674.387878,486.750244 682.031006,499.379639 689.418030,512.157104 
	C703.304504,536.176941 717.207886,560.189697 730.788513,584.382690 
	C740.859741,602.323853 751.371521,620.111267 759.979309,638.755676 
	C769.891174,660.224670 762.723694,686.049805 744.252319,700.023193 
	C743.058472,700.704224 742.536011,701.318054 742.013489,701.931885 
	C741.557922,702.229370 741.102417,702.526917 740.005554,702.922729 
	C736.630737,704.178894 733.954468,705.504944 731.151184,706.457397 
	C726.334656,708.093811 721.496338,710.532593 716.565735,710.806091 
	C701.141113,711.661499 685.669434,711.933655 670.215393,711.950317 
	C582.580200,712.044495 494.944794,711.998291 407.309448,711.999817 
	C405.399933,711.999878 403.490387,711.999756 401.580872,711.999756 
	C401.507416,712.363464 401.433990,712.727173 401.360535,713.090820 
	C402.218994,713.713562 403.077454,714.336243 403.935913,714.958923 
	C404.973572,721.632507 406.641022,728.279053 406.929413,734.984863 
	C407.758362,754.257446 392.970215,769.317749 377.083374,775.023804 
	C374.937592,775.635254 373.517181,776.239197 372.096802,776.843140 
	C370.594513,777.165222 369.092255,777.487244 366.920929,777.554199 
	C363.566986,777.434937 360.882111,777.570740 358.197205,777.706543 
	C357.357574,777.668335 356.517944,777.630127 355.313354,777.078247 
	C353.858704,775.692322 352.898895,774.489502 351.658051,774.001953 
	C343.922943,770.962524 336.167450,768.280945 331.067993,760.829651 
	C327.657898,755.846802 323.234039,751.557861 319.263855,746.958374 
	C319.263855,746.958374 319.044708,746.797913 318.946259,746.679932 
	C318.847809,746.562012 318.803711,746.471985 318.803711,746.471985 
	C318.581482,745.578186 318.359253,744.684448 318.397278,743.071411 
	C318.313477,740.615479 317.969421,738.878662 317.625397,737.141907 
	C317.703766,735.335632 317.782104,733.529297 318.224152,731.069946 
	C318.706635,728.863892 318.825409,727.311035 318.944153,725.758118 
	C319.374451,723.424255 320.050934,721.098877 320.130981,718.753052 
	C320.170929,717.583008 319.119568,716.375671 318.171753,714.894531 
	C317.490540,714.406616 317.256836,714.477234 317.080597,714.815857 
	C315.962769,714.808228 314.844940,714.800537 313.230713,714.378967 
	C308.476135,712.351746 304.262421,710.606812 299.951172,709.150452 
	C288.366119,705.236877 279.052307,698.147217 273.206635,687.585144 
	C266.979034,676.332825 264.569275,663.848572 264.940094,650.893677 
	C264.988129,649.214966 264.188171,647.512085 263.781006,645.820374 
	C267.087006,637.893372 269.642334,629.543030 273.831665,622.114197 
	C290.136108,593.201782 306.974640,564.590820 323.581635,535.848755 
	C330.971863,523.058350 338.284088,510.222900 346.270142,497.194458 
	C349.968048,493.344971 353.569397,490.034576 355.986969,486.012604 
	C363.702362,473.177032 370.903625,460.033722 378.454193,447.097260 
	C382.407867,440.323334 386.932281,433.875610 390.744019,427.027374 
	C396.763184,416.213135 402.164581,405.053162 408.248901,394.277496 
	C419.441406,374.454987 430.955353,354.814117 442.306488,335.080994 
	C450.452332,320.920013 458.962311,306.946564 466.516266,292.475220 
	C471.013123,283.860413 478.156921,278.521362 485.927399,273.916718 
	C492.514709,270.013184 499.862671,267.393219 506.874054,264.205292 
M637.249939,258.016632 
	C636.495483,258.664581 635.741089,259.312531 635.001953,260.001862 
	C635.001953,260.001862 634.961365,259.984283 634.222229,260.016418 
	C632.819458,261.692505 631.416687,263.368591 629.925598,265.785095 
	C626.481079,272.185577 626.175537,278.872925 627.870544,286.381744 
	C628.870178,288.499146 629.501221,290.917084 630.937317,292.678650 
	C635.593018,298.389069 643.791565,303.371368 651.853088,300.007690 
	C666.717346,300.032104 673.216736,287.462341 672.544861,275.682251 
	C671.935730,265.000702 665.112854,257.832123 655.250122,254.580338 
	C651.667847,253.399261 646.650940,251.830215 642.597168,256.056885 
	C642.597168,256.056885 642.164490,256.045563 641.388672,256.025726 
	C640.254211,256.664215 639.119690,257.302673 637.991760,258.002319 
	C637.991760,258.002319 637.934998,257.978607 637.249939,258.016632 
M377.982727,739.182129 
	C380.753937,731.007202 376.898346,725.494324 370.699768,720.859070 
	C364.083466,715.911560 353.620880,717.948242 349.479645,725.053772 
	C344.831573,733.028931 346.721405,743.447144 353.485809,747.138916 
	C363.312347,752.501953 373.031677,749.631226 377.982727,739.182129 
M596.592529,593.208313 
	C601.558594,591.382446 603.080627,587.529114 603.061707,582.596375 
	C603.027100,573.574402 597.527588,567.458801 587.714417,565.733398 
	C581.199463,564.587891 574.871887,567.014038 572.519531,572.470703 
	C569.568787,579.315491 569.193359,584.546814 574.406189,589.891907 
	C581.150757,596.807617 586.236694,597.841553 596.592529,593.208313 
z"/>
<path fill="#E19796" opacity="1.000000" stroke="none" 
	d="
M293.849121,656.463440 
	C291.678070,649.611023 292.679047,643.734741 297.370972,636.976135 
	C306.442413,623.908936 313.630585,609.537964 321.657227,595.741028 
	C334.383026,573.866760 347.204529,552.048096 359.888794,530.149780 
	C366.154663,519.332336 372.126404,508.344727 378.370026,497.514130 
	C388.227661,480.414490 398.250824,463.410278 408.111877,446.312592 
	C416.066956,432.519531 423.838531,418.620667 431.779602,404.819366 
	C439.106049,392.086304 446.604126,379.451996 453.925171,366.715881 
	C460.343109,355.550720 466.579834,344.281525 472.972961,333.101929 
	C477.562042,325.077118 482.229736,317.095856 486.997070,309.176208 
	C487.578949,308.209534 488.997375,307.746490 490.368408,307.053955 
	C486.251526,315.588348 482.072021,324.277893 477.292084,332.623535 
	C447.029358,385.461365 416.662689,438.239777 386.271362,491.003815 
	C367.104584,524.280273 347.862701,557.513611 328.600342,590.734863 
	C319.422913,606.562927 309.890198,622.190308 300.997742,638.175293 
	C297.905182,643.734375 296.254639,650.095764 293.849121,656.463440 
z"/>
<path fill="#E3999C" opacity="1.000000" stroke="none" 
	d="
M404.409760,714.983154 
	C403.077454,714.336243 402.218994,713.713562 401.360535,713.090820 
	C401.433990,712.727173 401.507416,712.363464 401.580872,711.999756 
	C403.490387,711.999756 405.399933,711.999878 407.309448,711.999817 
	C494.944794,711.998291 582.580200,712.044495 670.215393,711.950317 
	C685.669434,711.933655 701.141113,711.661499 716.565735,710.806091 
	C721.496338,710.532593 726.334656,708.093811 731.151184,706.457397 
	C733.954468,705.504944 736.630737,704.178894 739.754517,703.030457 
	C730.498413,711.273560 719.016602,714.855530 706.655273,714.906494 
	C653.054443,715.127441 599.452271,715.046204 545.850586,715.049805 
	C498.861603,715.053040 451.872589,715.022888 404.409760,714.983154 
z"/>
<path fill="#E39899" opacity="1.000000" stroke="none" 
	d="
M506.467163,264.159485 
	C499.862671,267.393219 492.514709,270.013184 485.927399,273.916718 
	C478.156921,278.521362 471.013123,283.860413 466.516266,292.475220 
	C458.962311,306.946564 450.452332,320.920013 442.306488,335.080994 
	C430.955353,354.814117 419.441406,374.454987 408.248901,394.277496 
	C402.164581,405.053162 396.763184,416.213135 390.744019,427.027374 
	C386.932281,433.875610 382.407867,440.323334 378.454193,447.097260 
	C370.903625,460.033722 363.702362,473.177032 355.986969,486.012604 
	C353.569397,490.034576 349.968048,493.344971 346.562073,497.009949 
	C351.126190,488.005005 355.880737,478.882080 360.976227,469.953796 
	C376.891449,442.067139 392.932739,414.252411 408.930511,386.412872 
	C422.271179,363.197296 435.663574,340.011261 448.940796,316.759491 
	C453.722443,308.385590 458.032013,299.738892 462.913940,291.426300 
	C472.573578,274.978485 486.872498,265.625946 506.467163,264.159485 
z"/>
<path fill="#E09799" opacity="1.000000" stroke="none" 
	d="
M633.121948,478.341492 
	C634.778076,479.371002 636.476868,480.754486 638.173584,482.140503 
	C640.035034,483.661133 641.894531,485.184082 644.501221,487.316528 
	C641.885559,492.777618 647.385010,496.792511 650.173767,501.763947 
	C653.928589,508.457458 657.667542,515.159851 661.425659,521.851501 
	C667.523560,532.709351 673.533813,543.618103 679.765137,554.398926 
	C685.043518,563.531189 690.692749,572.449036 695.976318,581.578430 
	C701.588379,591.275513 706.905884,601.142578 712.457458,610.875305 
	C717.891846,620.402649 723.433105,629.869507 728.996460,639.322327 
	C729.807922,640.700989 731.003357,641.853760 732.520142,643.727661 
	C732.202515,644.415710 731.470947,646.000488 730.450806,647.747559 
	C723.242493,635.798035 716.351929,623.669312 709.397461,611.577393 
	C690.232849,578.255493 671.025330,544.958374 651.870239,511.631165 
	C645.578796,500.685089 639.396057,489.676575 633.121948,478.341492 
z"/>
<path fill="#E2999A" opacity="1.000000" stroke="none" 
	d="
M589.283447,367.795288 
	C589.994202,363.934753 592.251648,359.723480 591.700500,355.919006 
	C590.881714,350.266785 588.425354,344.743286 586.019409,339.459412 
	C583.520386,333.971191 580.353027,328.774231 577.299561,323.554260 
	C570.811096,312.462036 564.283752,301.390289 557.548401,290.447906 
	C556.749390,289.149750 554.554504,288.710754 553.701843,288.249542 
	C552.878845,286.251831 552.673340,284.046387 551.484985,283.163086 
	C546.270020,279.286774 540.988708,275.395416 535.308960,272.279694 
	C530.317383,269.541504 524.800354,267.731018 519.438904,265.714050 
	C517.624695,265.031555 515.576721,264.970795 513.361328,264.372925 
	C537.754578,263.797913 554.891663,275.539917 566.332947,296.882721 
	C574.331604,311.803711 582.747498,326.501984 591.045532,341.261200 
	C596.184937,350.402222 596.527710,359.198517 589.283447,367.795288 
z"/>
<path fill="#E0989A" opacity="1.000000" stroke="none" 
	d="
M666.843506,473.689941 
	C665.538208,473.632538 663.548706,473.616486 663.005432,472.721985 
	C660.094482,467.928833 657.673706,462.840973 654.842957,457.995483 
	C648.051514,446.370300 641.126099,434.823517 634.097961,422.980896 
	C627.955627,428.040314 622.298279,432.517761 616.863281,437.250610 
	C613.951782,439.786041 614.653076,442.892365 616.492676,445.838196 
	C621.057800,453.148956 625.806580,460.353607 630.101135,467.819702 
	C631.479858,470.216553 631.669006,473.297638 632.270203,476.364868 
	C625.063049,464.865692 617.973877,453.075806 610.924377,441.262329 
	C609.387146,438.686218 609.697510,436.762482 612.709839,435.246246 
	C620.196228,431.477936 626.893616,426.703156 631.800659,419.667908 
	C634.189880,416.242615 635.841370,418.420197 637.232239,420.853088 
	C645.147278,434.697052 653.093323,448.523346 660.977661,462.384735 
	C663.021545,465.978210 664.881958,469.676025 666.843506,473.689941 
z"/>
<path fill="#E2999A" opacity="1.000000" stroke="none" 
	d="
M526.128784,298.307190 
	C529.772522,297.293671 532.484497,299.133087 534.381775,302.070648 
	C538.671326,308.712128 542.975281,315.361816 546.873535,322.234894 
	C554.831726,336.266327 562.514160,350.454041 570.341675,364.559906 
	C571.597290,366.822632 572.618164,369.454681 574.482178,371.066284 
	C576.021667,372.397278 578.687988,373.072662 580.779480,372.930176 
	C582.757996,372.795380 584.638184,371.217621 586.916870,370.155823 
	C584.455994,373.289368 581.785767,376.698669 578.652771,379.609894 
	C578.224854,380.007507 574.772400,378.340698 573.935364,376.915924 
	C568.148682,367.066132 562.706543,357.014465 557.110413,347.051971 
	C550.293396,334.915985 543.665405,322.664093 536.473633,310.753357 
	C533.773865,306.282013 529.721863,302.627136 526.128784,298.307190 
z"/>
<path fill="#E0989A" opacity="1.000000" stroke="none" 
	d="
M263.532654,646.118042 
	C264.188171,647.512085 264.988129,649.214966 264.940094,650.893677 
	C264.569275,663.848572 266.979034,676.332825 273.206635,687.585144 
	C279.052307,698.147217 288.366119,705.236877 299.951172,709.150452 
	C304.262421,710.606812 308.476135,712.351746 312.823181,714.275513 
	C301.292023,714.419189 291.305206,710.050537 282.456421,702.751221 
	C265.843628,689.047302 260.386292,671.018921 262.158386,650.222961 
	C262.268463,648.931274 262.897003,647.683777 263.532654,646.118042 
z"/>
<path fill="#E3999C" opacity="1.000000" stroke="none" 
	d="
M505.671509,560.893677 
	C503.239624,561.069885 500.508972,561.319275 497.915070,560.835449 
	C495.583954,560.400635 493.403046,559.160522 491.765076,557.521484 
	C489.465607,555.811829 487.167999,554.099731 484.865692,552.393921 
	C484.080444,551.812073 482.658325,551.313965 482.587646,550.662598 
	C481.812042,543.513672 477.187164,538.051331 474.650696,531.699646 
	C474.231537,530.650024 475.662476,528.861572 476.512085,527.254883 
	C480.799377,535.765076 483.740753,545.173401 491.582947,551.402344 
	C495.914459,554.842896 500.797760,557.588623 505.671509,560.893677 
z"/>
<path fill="#E39899" opacity="1.000000" stroke="none" 
	d="
M367.630920,626.987183 
	C367.692993,629.370361 368.010315,632.150024 367.142822,634.490662 
	C365.451324,639.054810 362.908630,643.296204 361.059784,647.811096 
	C358.104004,655.028931 355.490417,662.386597 352.557098,669.614136 
	C352.152710,670.610535 350.746460,671.200256 349.433533,671.995544 
	C352.317902,662.290039 355.241333,652.438171 358.955200,642.893982 
	C361.092804,637.400574 364.509674,632.404968 367.630920,626.987183 
z"/>
<path fill="#DF9B9F" opacity="1.000000" stroke="none" 
	d="
M597.257874,280.473175 
	C597.881714,281.093964 598.649353,282.071320 598.967590,283.177917 
	C602.235168,294.539886 607.243408,304.870636 616.354126,312.778534 
	C617.331726,313.627075 618.548584,314.294830 619.764221,314.758331 
	C625.735413,317.034790 627.120056,320.019592 624.833740,326.782196 
	C624.766479,323.407654 622.883179,321.545074 620.202820,319.388550 
	C614.056396,314.443481 607.012329,309.655853 603.121094,303.139313 
	C599.337097,296.802399 599.028015,288.390503 597.257874,280.473175 
z"/>
<path fill="#E2999A" opacity="1.000000" stroke="none" 
	d="
M514.547241,419.207458 
	C513.031128,420.636230 511.273132,422.347870 509.176666,423.355042 
	C502.047180,426.779968 494.731720,429.820862 487.635254,433.309357 
	C485.487152,434.365326 483.893616,436.498535 481.914612,437.960297 
	C478.233215,440.679504 474.455231,443.267944 470.364319,445.957336 
	C474.097198,441.546997 477.573151,436.227020 482.398590,432.816284 
	C491.906372,426.096130 502.406250,421.011444 514.547241,419.207458 
z"/>
<path fill="#E2999A" opacity="1.000000" stroke="none" 
	d="
M544.125732,595.320190 
	C546.479919,597.209839 550.048828,599.042908 551.131531,601.838806 
	C553.671326,608.397034 558.764709,612.337769 563.890808,616.191284 
	C567.247009,618.714355 571.497070,620.032288 575.278015,622.020691 
	C576.002441,622.401672 576.406555,623.391724 576.962036,624.456665 
	C561.562927,622.473328 548.014648,610.432190 544.125732,595.320190 
z"/>
<path fill="#E09799" opacity="1.000000" stroke="none" 
	d="
M319.269714,747.324097 
	C323.234039,751.557861 327.657898,755.846802 331.067993,760.829651 
	C336.167450,768.280945 343.922943,770.962524 351.658051,774.001953 
	C352.898895,774.489502 353.858704,775.692322 354.933838,776.887329 
	C336.835815,774.858765 325.215759,764.703308 319.269714,747.324097 
z"/>
<path fill="#E0989A" opacity="1.000000" stroke="none" 
	d="
M569.563293,539.158325 
	C566.563416,542.019470 562.869812,544.575256 559.919006,547.809021 
	C555.002075,553.197510 550.561035,559.020142 545.637573,565.002747 
	C536.865967,565.002747 526.935974,565.066284 517.008362,564.938904 
	C515.389954,564.918091 513.782288,564.053345 512.114136,563.151123 
	C514.819763,562.930237 517.580872,563.136780 520.912964,563.568604 
	C521.679199,563.898865 521.887573,563.957336 522.109070,563.969177 
	C522.514038,563.938965 522.919006,563.908752 523.973511,563.936646 
	C525.085571,563.995361 525.548096,563.995911 526.010681,563.996399 
	C527.411621,563.975098 528.812622,563.953796 531.008789,563.971680 
	C532.803406,564.026550 533.802795,564.042297 534.802124,564.058044 
	C542.128662,563.825439 547.306763,561.303223 550.555420,553.791138 
	C553.901489,546.053589 561.393311,542.032776 569.563293,539.158325 
z"/>
<path fill="#DF9B9F" opacity="1.000000" stroke="none" 
	d="
M690.107422,246.568970 
	C688.316406,245.874603 686.018616,245.220749 684.808594,243.700897 
	C678.798584,236.152130 669.695251,234.153015 661.818298,229.828110 
	C653.971619,225.519760 646.394836,228.206757 638.421875,227.447327 
	C644.115662,226.834854 650.153381,225.780670 656.077637,226.228287 
	C669.769714,227.262787 680.772034,233.855820 689.476807,244.362106 
	C689.864258,244.829773 689.901672,245.587555 690.107422,246.568970 
z"/>
<path fill="#E39899" opacity="1.000000" stroke="none" 
	d="
M465.657104,450.009399 
	C464.369720,457.572479 460.555267,464.112000 456.221466,470.593567 
	C453.452057,474.735504 452.262421,479.918213 450.213013,484.567535 
	C449.666718,485.806854 448.562561,486.800262 447.353607,487.955109 
	C449.010773,476.955505 452.837463,466.670319 459.733521,457.667114 
	C461.637390,455.181549 463.473236,452.643921 465.657104,450.009399 
z"/>
<path fill="#E2999A" opacity="1.000000" stroke="none" 
	d="
M403.672943,584.099426 
	C402.379700,586.275452 400.929230,588.676270 399.091156,590.730347 
	C393.117371,597.406311 387.032532,603.984314 380.898834,610.514038 
	C380.185211,611.273682 378.898560,611.495117 377.531464,611.965393 
	C384.252319,601.145325 392.754272,591.676025 403.672943,584.099426 
z"/>
<path fill="#E0989A" opacity="1.000000" stroke="none" 
	d="
M598.681519,385.094238 
	C596.323669,388.965790 594.284790,393.646149 590.821106,396.721985 
	C586.096863,400.917114 580.354675,404.001831 574.891602,407.302155 
	C573.621216,408.069611 571.716187,407.786407 569.722412,408.015869 
	C579.016357,400.425995 588.690918,392.806946 598.681519,385.094238 
z"/>
<path fill="#E0989A" opacity="1.000000" stroke="none" 
	d="
M631.019470,229.986969 
	C630.724854,230.796280 630.674255,231.974060 630.096863,232.356476 
	C625.628662,235.315735 621.089417,238.172791 616.491821,240.927429 
	C615.652405,241.430359 614.446472,241.321548 613.217773,241.064316 
	C613.025818,240.633499 613.076416,240.307770 613.076416,240.307770 
	C617.368164,237.180847 621.659912,234.053909 626.685791,230.912262 
	C628.619812,230.594025 629.819641,230.290497 631.019470,229.986969 
z"/>
<path fill="#E0989A" opacity="1.000000" stroke="none" 
	d="
M608.033081,247.964630 
	C608.060669,248.928040 608.420654,250.043930 608.060303,250.829376 
	C606.144531,255.005173 604.048218,259.098083 601.644714,263.611084 
	C600.560242,264.007751 599.845459,264.013031 599.130676,264.018311 
	C599.325500,263.199646 599.520325,262.380981 600.118774,261.075836 
	C600.641541,259.965118 600.760681,259.340912 600.879761,258.716705 
	C602.628540,255.226730 604.377258,251.736771 606.736206,248.091705 
	C607.575317,247.945938 607.804199,247.955276 608.033081,247.964630 
z"/>
<path fill="#DF9B9F" opacity="1.000000" stroke="none" 
	d="
M598.884583,264.295593 
	C599.845459,264.013031 600.560242,264.007751 601.632812,264.002441 
	C600.676514,266.942169 599.362427,269.881866 597.725342,272.879059 
	C597.814453,270.148621 598.226501,267.360748 598.884583,264.295593 
z"/>
<path fill="#E0989A" opacity="1.000000" stroke="none" 
	d="
M598.012146,537.660645 
	C592.118164,537.607666 585.925659,537.287964 579.239746,536.954102 
	C585.140747,534.084473 591.422302,535.941833 598.012146,537.660645 
z"/>
<path fill="#E2999A" opacity="1.000000" stroke="none" 
	d="
M526.630859,593.755859 
	C529.970581,593.639038 533.726868,593.600342 537.635437,593.833313 
	C534.207642,594.014587 530.627563,593.924255 526.630859,593.755859 
z"/>
<path fill="#E19796" opacity="1.000000" stroke="none" 
	d="
M296.948792,673.641602 
	C295.756073,671.570374 294.520508,669.139954 293.475281,666.461914 
	C294.745728,668.570374 295.825836,670.926331 296.948792,673.641602 
z"/>
<path fill="#DF9B9F" opacity="1.000000" stroke="none" 
	d="
M612.800537,361.551270 
	C612.006531,363.858032 610.956055,366.337158 609.587280,368.883057 
	C610.360718,366.541077 611.452393,364.132324 612.800537,361.551270 
z"/>
<path fill="#E2999A" opacity="1.000000" stroke="none" 
	d="
M465.312744,594.139221 
	C468.097321,593.724548 471.155914,593.502930 474.512054,593.502197 
	C471.735321,593.926208 468.661072,594.129272 465.312744,594.139221 
z"/>
<path fill="#E09799" opacity="1.000000" stroke="none" 
	d="
M317.492188,737.492554 
	C317.969421,738.878662 318.313477,740.615479 318.434204,742.607727 
	C317.926941,741.189880 317.642975,739.516602 317.492188,737.492554 
z"/>
<path fill="#DF9B9F" opacity="1.000000" stroke="none" 
	d="
M696.915894,257.647461 
	C695.961731,256.502289 694.998962,255.001694 694.053345,253.125305 
	C695.016113,254.263657 695.961731,255.777832 696.915894,257.647461 
z"/>
<path fill="#DF9B9F" opacity="1.000000" stroke="none" 
	d="
M616.918213,352.316406 
	C616.703369,353.689514 616.227112,355.277344 615.435120,356.921936 
	C615.631897,355.496155 616.144409,354.013641 616.918213,352.316406 
z"/>
<path fill="#E2999A" opacity="1.000000" stroke="none" 
	d="
M455.409546,595.809692 
	C456.481384,595.292480 457.911072,594.806458 459.589844,594.531006 
	C458.481750,595.107971 457.124573,595.474426 455.409546,595.809692 
z"/>
<path fill="#E09799" opacity="1.000000" stroke="none" 
	d="
M358.619202,777.787109 
	C360.882111,777.570740 363.566986,777.434937 366.538910,777.523804 
	C364.231018,777.788208 361.636108,777.827942 358.619202,777.787109 
z"/>
<path fill="#E09799" opacity="1.000000" stroke="none" 
	d="
M372.446960,776.865051 
	C373.517181,776.239197 374.937592,775.635254 376.713287,775.024658 
	C375.644745,775.640991 374.220947,776.263977 372.446960,776.865051 
z"/>
<path fill="#E09799" opacity="1.000000" stroke="none" 
	d="
M318.711426,726.001587 
	C318.825409,727.311035 318.706635,728.863892 318.324585,730.685364 
	C318.200470,729.384338 318.339569,727.814697 318.711426,726.001587 
z"/>
<path fill="#DF9B9F" opacity="1.000000" stroke="none" 
	d="
M611.009033,243.969421 
	C610.192200,244.633438 609.375366,245.297455 608.223511,245.996979 
	C608.707825,245.039963 609.527100,244.047440 610.674561,243.243530 
	C611.004883,243.611237 611.006958,243.790329 611.009033,243.969421 
z"/>
<path fill="#E0989A" opacity="1.000000" stroke="none" 
	d="
M574.608765,537.335693 
	C573.839539,537.899475 572.756042,538.439819 571.310852,538.984619 
	C572.064331,538.430115 573.179443,537.871155 574.608765,537.335693 
z"/>
<path fill="#DF9B9F" opacity="1.000000" stroke="none" 
	d="
M635.614624,227.491760 
	C635.083801,228.031296 634.263855,228.496643 633.101562,228.945740 
	C633.614624,228.425507 634.470093,227.921524 635.614624,227.491760 
z"/>
<path fill="#DF9B9F" opacity="1.000000" stroke="none" 
	d="
M631.012268,229.764526 
	C629.819641,230.290497 628.619812,230.594025 627.037598,230.879456 
	C627.869690,230.264435 629.084106,229.667511 630.643066,229.083954 
	C630.987610,229.097336 631.005066,229.542084 631.012268,229.764526 
z"/>
<path fill="#E3999C" opacity="1.000000" stroke="none" 
	d="
M534.586304,563.859619 
	C533.802795,564.042297 532.803406,564.026550 531.427490,564.014160 
	C532.157349,563.898743 533.263916,563.779968 534.586304,563.859619 
z"/>
<path fill="#E3999C" opacity="1.000000" stroke="none" 
	d="
M742.330261,701.913391 
	C742.536011,701.318054 743.058472,700.704224 743.926025,700.080566 
	C743.729675,700.678833 743.188354,701.286865 742.330261,701.913391 
z"/>
<path fill="#DF9B9F" opacity="1.000000" stroke="none" 
	d="
M692.823364,249.735321 
	C692.262756,249.547760 691.677063,249.055557 691.060791,248.248749 
	C691.619629,248.432968 692.208862,248.931824 692.823364,249.735321 
z"/>
<path fill="#E2999A" opacity="1.000000" stroke="none" 
	d="
M407.708191,581.150024 
	C407.483612,581.707642 406.950348,582.307861 406.076355,582.921143 
	C406.290253,582.353699 406.844879,581.773193 407.708191,581.150024 
z"/>
<path fill="#DF9B9F" opacity="1.000000" stroke="none" 
	d="
M622.901733,335.236237 
	C623.024658,335.666901 622.934082,336.268311 622.599487,336.908264 
	C622.466370,336.433533 622.577332,335.920227 622.901733,335.236237 
z"/>
<path fill="#DF9B9F" opacity="1.000000" stroke="none" 
	d="
M606.658447,373.992371 
	C606.578979,374.566803 606.207214,375.220825 605.545532,375.959595 
	C605.625793,375.386871 605.995972,374.729431 606.658447,373.992371 
z"/>
<path fill="#E0989A" opacity="1.000000" stroke="none" 
	d="
M601.913452,538.710449 
	C601.242676,538.805786 600.331909,538.649170 599.193787,538.225830 
	C599.868774,538.125610 600.771118,538.292053 601.913452,538.710449 
z"/>
<path fill="#DF9B9F" opacity="1.000000" stroke="none" 
	d="
M614.731079,357.981079 
	C614.670532,358.482788 614.381714,359.122711 613.838989,359.832458 
	C613.891052,359.307922 614.196899,358.713623 614.731079,357.981079 
z"/>
<path fill="#DF9B9F" opacity="1.000000" stroke="none" 
	d="
M618.762573,348.081146 
	C618.734863,348.543060 618.488892,349.128784 618.025635,349.789795 
	C618.053589,349.311707 618.298950,348.758301 618.762573,348.081146 
z"/>
<path fill="#E2999A" opacity="1.000000" stroke="none" 
	d="
M469.778992,446.127319 
	C469.701019,446.595276 469.398163,447.179199 468.857544,447.822021 
	C468.931183,447.335052 469.242615,446.789154 469.778992,446.127319 
z"/>
<path fill="#DF9B9F" opacity="1.000000" stroke="none" 
	d="
M620.833008,341.463562 
	C620.898499,342.033020 620.737915,342.795227 620.371704,343.769531 
	C620.312988,343.206543 620.459900,342.431458 620.833008,341.463562 
z"/>
<path fill="#DF9B9F" opacity="1.000000" stroke="none" 
	d="
M621.821472,338.461517 
	C621.891357,339.027039 621.739929,339.789581 621.385742,340.766235 
	C621.322083,340.206421 621.461121,339.432465 621.821472,338.461517 
z"/>
<path fill="#DF9B9F" opacity="1.000000" stroke="none" 
	d="
M693.918701,251.692200 
	C693.641296,251.544525 693.347717,251.123947 693.002930,250.442993 
	C693.268616,250.594864 693.585571,251.007095 693.918701,251.692200 
z"/>
<path fill="#DF9B9F" opacity="1.000000" stroke="none" 
	d="
M607.720703,372.115417 
	C607.792358,372.515045 607.614563,373.086945 607.175903,373.821960 
	C607.100464,373.419250 607.285889,372.853455 607.720703,372.115417 
z"/>
<path fill="#DF9B9F" opacity="1.000000" stroke="none" 
	d="
M600.651367,258.940765 
	C600.760681,259.340912 600.641541,259.965118 600.270447,260.791260 
	C600.153320,260.383728 600.288208,259.774261 600.651367,258.940765 
z"/>
<path fill="#DF9B9F" opacity="1.000000" stroke="none" 
	d="
M624.145996,329.402435 
	C624.302795,329.629425 624.388550,330.161560 624.274414,330.825928 
	C624.074646,330.541321 624.074829,330.124420 624.145996,329.402435 
z"/>
<path fill="#DF9B9F" opacity="1.000000" stroke="none" 
	d="
M608.759644,370.160217 
	C608.813354,370.542389 608.629639,371.103638 608.191650,371.828979 
	C608.132385,371.441803 608.327332,370.890564 608.759644,370.160217 
z"/>
<path fill="#E3999C" opacity="1.000000" stroke="none" 
	d="
M525.836914,563.823364 
	C525.548096,563.995911 525.085571,563.995361 524.275269,563.983765 
	C524.506104,563.865173 525.084595,563.757751 525.836914,563.823364 
z"/>
<path fill="#DF9B9F" opacity="1.000000" stroke="none" 
	d="
M619.059509,347.283508 
	C619.257080,347.233429 619.398804,347.403778 619.492920,347.597260 
	C619.512390,347.637299 619.355225,347.763306 619.117554,347.920288 
	C618.955688,347.990906 618.986816,347.512115 619.059509,347.283508 
z"/>
<path fill="#E39899" opacity="1.000000" stroke="none" 
	d="
M446.749939,488.863281 
	C446.925140,489.060211 446.797974,489.362885 446.371948,489.766479 
	C446.173523,489.558258 446.298370,489.258789 446.749939,488.863281 
z"/>
<path fill="#DF9B9F" opacity="1.000000" stroke="none" 
	d="
M604.846558,376.365051 
	C604.958069,376.352631 604.695984,376.622040 604.631470,376.677948 
	C604.566895,376.733856 604.734985,376.377502 604.846558,376.365051 
z"/>
<path fill="#E09799" opacity="1.000000" stroke="none" 
	d="
M318.739471,746.484192 
	C318.803711,746.471985 318.847809,746.562012 318.873535,746.565308 
	C318.899231,746.568542 318.675232,746.496399 318.739471,746.484192 
z"/>
<path fill="#DF9B9F" opacity="1.000000" stroke="none" 
	d="
M612.896423,240.346588 
	C613.076416,240.307770 613.025818,240.633499 613.011047,240.797150 
	C612.996277,240.960800 612.641724,240.963669 612.467041,240.960800 
	C612.346985,240.702835 612.488281,240.511993 612.896423,240.346588 
z"/>
<path fill="#E3999C" opacity="1.000000" stroke="none" 
	d="
M509.688904,561.885864 
	C509.701843,561.975891 509.521606,561.820068 509.477783,561.797119 
	C509.433929,561.774109 509.675964,561.795776 509.688904,561.885864 
z"/>
<path fill="#E0989A" opacity="1.000000" stroke="none" 
	d="
M317.291992,714.859497 
	C317.256836,714.477234 317.490540,714.406616 317.857544,714.733521 
	C317.933350,714.863159 317.503418,714.903076 317.291992,714.859497 
z"/>
<path fill="#E0989A" opacity="1.000000" stroke="none" 
	d="
M611.261597,243.791443 
	C611.006958,243.790329 611.004883,243.611237 610.997192,243.162476 
	C611.143555,242.808960 611.295532,242.725128 611.693359,242.552078 
	C611.797546,242.846405 611.655884,243.229935 611.261597,243.791443 
z"/>
<path fill="#DF9B9F" opacity="1.000000" stroke="none" 
	d="
M607.998291,247.592560 
	C607.804199,247.955276 607.575317,247.945938 607.003418,247.893494 
	C606.902222,247.509720 607.143921,247.169067 607.648560,246.651657 
	C607.928772,246.723419 607.946106,246.971954 607.998291,247.592560 
z"/>
<path fill="#DF9B9F" opacity="1.000000" stroke="none" 
	d="
M690.972534,247.737122 
	C690.786865,247.788406 690.514221,247.589996 690.137573,247.156555 
	C690.317627,247.110153 690.601624,247.298798 690.972534,247.737122 
z"/>
<path fill="#E3999C" opacity="1.000000" stroke="none" 
	d="
M521.994507,563.829712 
	C521.887573,563.957336 521.679199,563.898865 521.357910,563.704224 
	C521.468079,563.463867 521.684082,563.489075 521.994507,563.829712 
z"/>
<path fill="#E2999A" opacity="1.000000" stroke="none" 
	d="
M376.749817,612.938171 
	C376.797760,613.095581 376.626648,613.405396 376.228485,613.857300 
	C376.177856,613.696472 376.354309,613.393494 376.749817,612.938171 
z"/>
<path fill="#E3999C" opacity="1.000000" stroke="none" 
	d="
M476.422638,524.572632 
	C476.406281,524.703369 476.124451,524.344604 476.064117,524.244080 
	C476.191559,524.181152 476.336639,524.280579 476.422638,524.572632 
z"/>
<path fill="#DF9B9F" opacity="1.000000" stroke="none" 
	d="
M619.884338,344.294891 
	C619.983459,344.275177 619.795837,344.511414 619.758179,344.564697 
	C619.720520,344.617981 619.785217,344.314606 619.884338,344.294891 
z"/>
<path fill="#E2999A" opacity="1.000000" stroke="none" 
	d="
M524.957642,297.247375 
	C525.116333,297.204681 525.422180,297.383850 525.861877,297.796204 
	C525.698792,297.842682 525.401733,297.655945 524.957642,297.247375 
z"/>
<path fill="#F8F5F5" opacity="1.000000" stroke="none" 
	d="
M628.099670,285.764038 
	C626.175537,278.872925 626.481079,272.185577 630.245239,265.244202 
	C632.030457,263.130310 633.495911,261.557312 634.961365,259.984283 
	C634.961365,259.984283 635.001953,260.001862 635.302734,259.939087 
	C636.380737,259.243774 637.157837,258.611206 637.934998,257.978607 
	C637.934998,257.978607 637.991760,258.002319 638.323486,257.949768 
	C639.825012,257.280029 640.994751,256.662781 642.164490,256.045563 
	C642.164490,256.045563 642.597168,256.056885 643.242188,256.014771 
	C647.461609,256.555389 651.141052,256.779144 654.590454,257.788910 
	C664.502747,260.690643 670.912537,269.645294 669.916199,278.986481 
	C668.963074,287.923309 663.600525,297.754242 650.673157,298.380310 
	C649.873413,298.241394 649.402405,298.235352 648.617188,298.138580 
	C647.867737,298.042542 647.432434,298.037262 646.995789,298.010803 
	C646.994385,297.989685 646.957214,298.009796 646.872437,297.874023 
	C646.637817,297.538330 646.451538,297.494659 645.861084,297.454620 
	C638.437256,295.352692 632.948730,291.040375 628.099670,285.764038 
z"/>
<path fill="#F8F5F5" opacity="1.000000" stroke="none" 
	d="
M377.902466,739.566467 
	C373.031677,749.631226 363.312347,752.501953 353.485809,747.138916 
	C346.721405,743.447144 344.831573,733.028931 349.479645,725.053772 
	C353.620880,717.948242 364.083466,715.911560 370.699768,720.859070 
	C376.898346,725.494324 380.753937,731.007202 377.902466,739.566467 
z"/>
<path fill="#F8F5F5" opacity="1.000000" stroke="none" 
	d="
M596.250122,593.388184 
	C586.236694,597.841553 581.150757,596.807617 574.406189,589.891907 
	C569.193359,584.546814 569.568787,579.315491 572.519531,572.470703 
	C574.871887,567.014038 581.199463,564.587891 587.714417,565.733398 
	C597.527588,567.458801 603.027100,573.574402 603.061707,582.596375 
	C603.080627,587.529114 601.558594,591.382446 596.250122,593.388184 
z"/>
<path fill="#DF9B9F" opacity="1.000000" stroke="none" 
	d="
M651.001953,298.513153 
	C663.600525,297.754242 668.963074,287.923309 669.916199,278.986481 
	C670.912537,269.645294 664.502747,260.690643 654.590454,257.788910 
	C651.141052,256.779144 647.461609,256.555389 643.451111,255.958252 
	C646.650940,251.830215 651.667847,253.399261 655.250122,254.580338 
	C665.112854,257.832123 671.935730,265.000702 672.544861,275.682251 
	C673.216736,287.462341 666.717346,300.032104 651.427246,299.758850 
	C650.996765,299.177734 650.996948,298.845459 651.001953,298.513153 
z"/>
<path fill="#E3999C" opacity="1.000000" stroke="none" 
	d="
M650.673157,298.380310 
	C650.996948,298.845459 650.996765,299.177734 651.003906,299.762329 
	C643.791565,303.371368 635.593018,298.389069 630.937317,292.678650 
	C629.501221,290.917084 628.870178,288.499146 627.985107,286.072876 
	C632.948730,291.040375 638.437256,295.352692 645.964233,297.540894 
	C646.596680,297.884674 646.770691,297.961365 646.957214,298.009796 
	C646.957214,298.009796 646.994385,297.989685 647.132935,298.218323 
	C647.824768,298.374390 648.378113,298.301849 648.931458,298.229309 
	C649.402405,298.235352 649.873413,298.241394 650.673157,298.380310 
z"/>
<path fill="#DF9B9F" opacity="1.000000" stroke="none" 
	d="
M634.591797,260.000366 
	C633.495911,261.557312 632.030457,263.130310 630.289429,264.873993 
	C631.416687,263.368591 632.819458,261.692505 634.591797,260.000366 
z"/>
<path fill="#DF9B9F" opacity="1.000000" stroke="none" 
	d="
M641.776611,256.035645 
	C640.994751,256.662781 639.825012,257.280029 638.320251,257.919189 
	C639.119690,257.302673 640.254211,256.664215 641.776611,256.035645 
z"/>
<path fill="#DF9B9F" opacity="1.000000" stroke="none" 
	d="
M637.592468,257.997620 
	C637.157837,258.611206 636.380737,259.243774 635.295166,259.918396 
	C635.741089,259.312531 636.495483,258.664581 637.592468,257.997620 
z"/>
<path fill="#DF9B9F" opacity="1.000000" stroke="none" 
	d="
M648.617188,298.138550 
	C648.378113,298.301849 647.824768,298.374390 647.134277,298.239441 
	C647.432434,298.037262 647.867737,298.042542 648.617188,298.138550 
z"/>
<path fill="#DF9B9F" opacity="1.000000" stroke="none" 
	d="
M646.872437,297.874023 
	C646.770691,297.961365 646.596680,297.884674 646.332092,297.693420 
	C646.451538,297.494659 646.637817,297.538330 646.872437,297.874023 
z"/>
</svg>